<svg width="50" height="56" viewBox="0 0 50 56" fill="none" xmlns="http://www.w3.org/2000/svg">
<path d="M50.0058 22.0689C50.0058 21.8101 49.8927 21.5638 49.6963 21.3954L44.7306 17.1375V9.86863C44.7306 8.47101 43.5936 7.33407 42.196 7.33407H33.3566C33.3481 7.32627 33.3423 7.31717 33.3332 7.31002L25.5728 0.710661C25.24 0.428537 24.7518 0.429837 24.4203 0.713261L16.7002 7.33407H7.54875C6.15113 7.33407 5.01418 8.47101 5.01418 9.86863V17.354L0.300637 21.3961C0.10432 21.5644 -0.00878906 21.8108 -0.00878906 22.0695C-0.00878906 22.0793 -0.00618877 22.089 -0.00553871 22.0988V53.1844C-0.00553871 54.4611 1.03325 55.4999 2.30931 55.4999H47.6935C48.9702 55.4999 50.0084 54.4611 50.0084 53.1844V22.0689H50.0058ZM18.1284 38.0284L1.76846 52.0565V24.0008L18.1284 38.0284ZM19.4909 39.1972L24.4209 43.4245C24.5867 43.5668 24.7928 43.6383 24.9982 43.6383C25.2036 43.6383 25.4097 43.5668 25.5754 43.4245L30.5054 39.1972L47.4478 53.7246H2.54853L19.4909 39.1972ZM31.8686 38.029L48.235 23.9956V52.0624L31.8686 38.029ZM47.7559 22.0689L44.7299 24.6632V19.4745L47.7559 22.0689ZM25.0008 2.55357L30.6224 7.33407H19.4259L25.0008 2.55357ZM7.54875 9.10807H42.196C42.6153 9.10807 42.9566 9.44935 42.9566 9.86863V17.3735C42.9377 17.4769 42.9384 17.5815 42.9566 17.6849V26.185L24.9982 41.5822L6.78818 25.9679V9.86863C6.78883 9.4487 7.12946 9.10807 7.54875 9.10807ZM5.01483 19.691V24.4474L2.24105 22.0695L5.01483 19.691ZM24.8727 32.5237C26.6922 32.5237 28.4838 32.0492 30.0543 31.1514C30.4794 30.9083 30.627 30.3662 30.3839 29.941C30.1401 29.5159 29.5986 29.3677 29.1735 29.6114C27.8708 30.3564 26.3834 30.7503 24.8727 30.7503C20.0857 30.7503 16.1919 26.8559 16.1919 22.0695C16.1919 17.2832 20.0864 13.3887 24.8727 13.3887C29.6591 13.3887 33.5529 17.2832 33.5529 22.0695C33.5529 25.0968 32.1813 26.2448 31.2595 26.278C30.5587 26.3092 30.0413 25.7456 29.9672 24.8537V22.221C29.9685 22.1703 29.975 22.1209 29.975 22.0695C29.975 22.0182 29.9685 21.9688 29.9672 21.918V17.8643C29.9672 17.3742 29.57 16.977 29.0799 16.977C28.5897 16.977 28.1925 17.3742 28.1925 17.8643V18.2036C27.2994 17.4353 26.1403 16.9672 24.8721 16.9672C22.0586 16.9672 19.7698 19.2561 19.7698 22.0695C19.7698 24.8829 22.0586 27.1718 24.8721 27.1718C26.2164 27.1718 27.4372 26.6452 28.3492 25.793C28.762 27.1874 29.9171 28.102 31.3226 28.0513C33.2513 27.9818 35.3262 26.081 35.3262 22.0702C35.3262 16.3055 30.6367 11.6153 24.8714 11.6153C19.1061 11.6153 14.4172 16.3042 14.4172 22.0689C14.4172 27.8335 19.1074 32.5237 24.8727 32.5237ZM24.8727 25.3971C23.037 25.3971 21.5444 23.904 21.5444 22.0689C21.5444 20.2338 23.0376 18.7406 24.8727 18.7406C26.6565 18.7406 28.1132 20.1525 28.1932 21.9174V22.2203C28.1132 23.9852 26.6571 25.3971 24.8727 25.3971Z" fill="#ffff"/>
</svg>
