<svg width="48" height="56" viewBox="0 0 48 56" fill="none" xmlns="http://www.w3.org/2000/svg">
<path d="M32.1777 3.00913V2.53849C32.1777 1.99764 31.9619 1.47756 31.5797 1.09533C31.1974 0.71311 30.68 0.499878 30.1391 0.499878H26.7406C26.0073 0.499878 25.3286 0.897718 24.9724 1.53998H22.8922C16.3423 1.8572 10.242 4.95669 6.12553 10.0585C2.00675 15.1628 0.264573 21.7801 1.33589 28.247C2.40721 34.7165 6.19057 40.4187 11.7342 43.9187C15.3121 46.2563 18.5053 49.1348 21.1993 52.4472L23.6201 55.3179C23.7189 55.4349 23.8645 55.4999 24.0153 55.4999C24.1661 55.4999 24.3117 55.4349 24.4106 55.3179L27.2682 51.9271C29.9569 48.7496 33.0954 45.9829 36.5875 43.7102C41.333 40.6003 44.7599 35.8447 46.211 30.3576C47.6593 24.8685 47.0275 19.0414 44.4376 13.9917C41.8452 8.94201 37.4794 5.03118 32.1774 3.00823L32.1777 3.00913ZM33.4388 35.827C30.7892 38.0242 27.4557 39.2203 24.0157 39.2125H23.4203V7.90568C23.4229 7.38303 23.8467 6.95918 24.3694 6.95398H32.4825C33.0077 6.95398 33.4316 7.38042 33.4316 7.90568V35.7803L33.4394 35.7933L33.4388 35.827ZM34.4711 14.1044C37.2118 16.858 38.7486 20.5842 38.7486 24.4688C38.7486 28.3535 37.2118 32.0826 34.4711 34.8358V14.1044ZM22.38 21.2316H19.3143V16.143C19.3143 15.8544 19.0803 15.6229 18.7943 15.6229C18.5083 15.6229 18.2742 15.8544 18.2742 16.143V21.2316H16.3891V19.1176C16.3891 18.829 16.1551 18.5976 15.869 18.5976C15.5804 18.5976 15.349 18.829 15.349 19.1176V21.2316H13.3156C12.2183 21.2342 11.329 22.1235 11.3264 23.2208V31.9317C9.99246 29.6825 9.28779 27.1186 9.28 24.5056C9.2956 20.8834 10.6374 17.3936 13.0504 14.6924C15.4634 11.9933 18.7813 10.272 22.3803 9.85334L22.38 21.2316ZM12.3665 33.3101V23.2213C12.3665 22.6987 12.7929 22.2722 13.3156 22.2722H22.3799V39.1141C18.4015 38.6669 14.7794 36.6153 12.3457 33.4352C12.3561 33.3962 12.3639 33.3543 12.3665 33.3101ZM25.729 2.50256C25.729 1.95132 26.1762 1.50407 26.7275 1.50407H30.126H30.1234C30.3887 1.50407 30.6435 1.60808 30.8333 1.7953C31.0205 1.98251 31.1245 2.23734 31.1219 2.50256V5.91408H25.729L25.729 2.50256ZM36.0181 42.8377C32.4428 45.1598 29.2264 47.9914 26.4699 51.2417L24.0152 54.154L21.9896 51.7565C19.223 48.3632 15.9493 45.4146 12.2829 43.0197C5.7667 38.9399 1.88462 31.7267 2.06901 24.0403C2.24582 18.5018 4.48463 13.226 8.34861 9.24999C12.21 5.27418 17.4156 2.88459 22.9466 2.5441H24.6862V5.92181H24.3663H24.3689C23.2717 5.92441 22.3823 6.81366 22.3797 7.91101V8.80552C17.5407 9.31257 13.2062 12.022 10.6321 16.1484C8.05787 20.275 7.53266 25.3612 9.2072 29.927C10.8817 34.4928 14.5715 38.0321 19.2028 39.5165C23.8364 41.0013 28.8942 40.268 32.9114 37.5247C36.9289 34.7815 39.4562 30.3402 39.7631 25.4856C40.0673 20.6309 38.1145 15.906 34.4716 12.6822V7.90555C34.469 6.80827 33.5798 5.91894 32.4824 5.91375H32.1626V4.09876C37.1629 6.09315 41.2529 9.85567 43.6586 14.6688C46.0612 19.4845 46.6125 25.0152 45.2031 30.208C43.7964 35.4033 40.5253 39.8994 36.019 42.8377L36.0181 42.8377ZM15.4112 24.506C15.4112 24.2174 15.6426 23.986 15.9313 23.986H19.1061C19.3922 23.986 19.6262 24.2174 19.6262 24.506C19.6262 24.7921 19.3922 25.0261 19.1061 25.0261H15.9313C15.7909 25.0261 15.6582 24.9741 15.5594 24.8753C15.4632 24.7765 15.4086 24.6439 15.4112 24.506ZM14.3503 27.3481C14.3503 27.0621 14.5817 26.828 14.8703 26.828H20.167C20.453 26.828 20.6871 27.0621 20.6871 27.3481C20.6871 27.6341 20.453 27.8681 20.167 27.8681H14.8703C14.7273 27.8655 14.5921 27.8083 14.4933 27.7043C14.3971 27.6003 14.3451 27.4625 14.3503 27.3195V27.3481ZM19.1061 29.6649C19.3921 29.6649 19.6262 29.8964 19.6262 30.185C19.6262 30.471 19.3921 30.705 19.1061 30.705H15.9312C15.6426 30.705 15.4112 30.471 15.4112 30.185C15.4112 29.8964 15.6426 29.6649 15.9312 29.6649H19.1061ZM14.3503 33.0271C14.3503 32.741 14.5817 32.507 14.8703 32.507H20.167C20.453 32.507 20.6871 32.741 20.6871 33.0271C20.6871 33.3131 20.453 33.5471 20.167 33.5471H14.8703C14.7273 33.5445 14.5921 33.4873 14.4933 33.3833C14.3971 33.2793 14.3451 33.1415 14.3503 32.9985V33.0271ZM26.5532 12.0247V34.0176C26.5532 34.3062 26.3192 34.5376 26.0332 34.5376C25.7471 34.5376 25.5131 34.3062 25.5131 34.0176V12.0247C25.5131 11.7361 25.7471 11.5047 26.0332 11.5047C26.3192 11.5047 26.5532 11.7361 26.5532 12.0247ZM28.9455 12.0247V34.0176C28.9455 34.3062 28.7115 34.5376 28.4254 34.5376C28.1394 34.5376 27.9054 34.3062 27.9054 34.0176V12.0247C27.9054 11.7361 28.1394 11.5047 28.4254 11.5047C28.7115 11.5047 28.9455 11.7361 28.9455 12.0247ZM31.3377 12.0247V34.0176C31.3377 34.3062 31.1037 34.5376 30.8177 34.5376C30.5317 34.5376 30.2976 34.3062 30.2976 34.0176V12.0247C30.2976 11.7361 30.5317 11.5047 30.8177 11.5047C31.1037 11.5047 31.3377 11.7361 31.3377 12.0247Z" fill="#ffff" stroke="#ffff" stroke-width="0.665663"/>
</svg>
