<svg width="56" height="56" viewBox="0 0 56 56" fill="none" xmlns="http://www.w3.org/2000/svg">
<path d="M43.0278 42.1061L34.0001 39.0511C32.9988 38.7126 31.8835 38.9352 31.0894 39.6325L28.1051 42.2526C27.6959 42.612 27.1173 42.7321 26.595 42.5653C24.8744 42.0163 21.2941 40.8741 18.2092 37.7889C15.1234 34.7033 13.9816 31.1235 13.4328 29.4031C13.2662 28.8808 13.386 28.3021 13.7454 27.8929L16.3655 24.9088C17.063 24.1145 17.2857 22.9991 16.9469 21.998L13.8919 12.9702C13.3393 11.3374 12.005 10.1317 10.3225 9.74494C8.65513 9.36201 6.94538 9.85756 5.74906 11.0714C1.63578 15.2446 -6.03229 26.8502 11.5578 44.4404C19.9868 52.8694 27.0406 55.4982 32.5618 55.4982C38.5627 55.4982 42.7532 52.3912 44.9267 50.249C46.1404 49.0525 46.6363 47.3429 46.2531 45.6756C45.8663 43.993 44.6606 42.6587 43.0278 42.1061ZM43.9385 49.2465C41.6892 51.4635 37.8973 54.0963 32.5746 54.096C32.5393 54.096 32.5032 54.0959 32.4677 54.0957C26.2797 54.0548 19.5795 50.4714 12.5532 43.4449C5.52677 36.4186 1.94331 29.7184 1.90236 23.5304C1.86682 18.152 4.51975 14.3238 6.75156 12.0595C7.41285 11.3885 8.29527 11.0262 9.21332 11.0262C9.47647 11.0262 9.74255 11.056 10.0072 11.1168C11.21 11.3933 12.1638 12.2548 12.5585 13.4215L15.6135 22.4493C15.7918 22.9757 15.6746 23.5623 15.3078 23.9801L12.6877 26.9641C12.0043 27.7424 11.776 28.8408 12.0918 29.8308C12.6742 31.657 13.8864 35.4569 17.2138 38.7843C20.5406 42.1112 24.3408 43.3237 26.1672 43.9063C27.157 44.2224 28.2557 43.9937 29.0339 43.3103L32.018 40.6902C32.4357 40.3234 33.0222 40.206 33.5489 40.3845L42.5765 43.4395C43.7432 43.8343 44.6047 44.788 44.8812 45.9908C45.1542 47.1785 44.8018 48.3956 43.9385 49.2465Z" fill="#ffff" stroke="#ffff" stroke-width="0.55"/>
<path d="M14.0381 8.04875C14.2039 8.04875 14.3703 7.99053 14.5042 7.87201C14.8324 7.58167 15.172 7.29732 15.5135 7.02701C15.8183 6.78576 15.8697 6.34313 15.6285 6.03836C15.3873 5.73368 14.9447 5.68204 14.6398 5.92338C14.2783 6.2095 13.9188 6.51045 13.5714 6.81787C13.2803 7.07542 13.2531 7.52021 13.5108 7.81133C13.6498 7.96853 13.8435 8.04875 14.0381 8.04875Z" fill="#ffff" stroke="#ffff" stroke-width="0.55"/>
<path d="M51.2739 14.468C51.4009 14.7045 51.6437 14.8389 51.8946 14.8389C52.007 14.8389 52.121 14.8119 52.2269 14.7551C52.5694 14.5712 52.698 14.1445 52.514 13.8021C52.1323 13.0912 51.7108 12.39 51.261 11.718C51.0447 11.395 50.6074 11.3085 50.2846 11.5246C49.9616 11.7408 49.875 12.1779 50.0912 12.501C50.5157 13.1353 50.9137 13.797 51.2739 14.468Z" fill="#ffff" stroke="#ffff" stroke-width="0.55"/>
<path d="M39.639 3.81708C40.3395 4.11626 41.0341 4.45363 41.7032 4.81987C41.8104 4.87859 41.9262 4.90638 42.0405 4.90638C42.2894 4.90638 42.5306 4.77412 42.6585 4.54033C42.845 4.19933 42.72 3.77162 42.379 3.58507C41.6699 3.19703 40.9341 2.83962 40.1918 2.52258C39.835 2.37019 39.421 2.53583 39.2682 2.89343C39.1155 3.25083 39.2815 3.6644 39.639 3.81708Z" fill="#ffff" stroke="#ffff" stroke-width="0.55"/>
<path d="M30.7121 1.90981C31.475 1.92366 32.2458 1.97471 33.0028 2.06151C33.0301 2.06465 33.0571 2.06623 33.0839 2.06623C33.4367 2.06623 33.7411 1.80141 33.7822 1.44254C33.8265 1.05636 33.5494 0.707405 33.1632 0.663123C32.3615 0.571219 31.5455 0.517118 30.7376 0.502389C30.3583 0.496989 30.0282 0.804611 30.0211 1.19334C30.014 1.58196 30.3233 1.90274 30.7121 1.90981Z" fill="#ffff" stroke="#ffff" stroke-width="0.55"/>
<path d="M54.1575 20.092C53.7767 20.1698 53.5312 20.5418 53.6092 20.9225C53.7618 21.6688 53.88 22.432 53.9603 23.191C53.9985 23.5524 54.3038 23.8209 54.6593 23.8209C54.684 23.8209 54.7091 23.8195 54.7342 23.8168C55.1208 23.776 55.401 23.4295 55.3601 23.0429C55.275 22.239 55.1499 21.4308 54.9881 20.6404C54.9102 20.2593 54.5378 20.0131 54.1575 20.092Z" fill="#ffff" stroke="#ffff" stroke-width="0.55"/>
<path d="M26.0166 2.27636C26.0569 2.27636 26.0978 2.27292 26.1389 2.26566C26.8901 2.13399 27.6564 2.03727 28.4167 1.97816C28.8042 1.94812 29.094 1.60957 29.0639 1.22202C29.0339 0.834472 28.6959 0.544131 28.3077 0.574863C27.5026 0.637311 26.6911 0.73972 25.8958 0.879245C25.513 0.946307 25.257 1.31117 25.3242 1.69401C25.3841 2.0358 25.6811 2.27636 26.0166 2.27636Z" fill="#ffff" stroke="#ffff" stroke-width="0.55"/>
<path d="M52.2606 16.5402C52.554 17.2428 52.8167 17.969 53.0415 18.6985C53.1347 19.0011 53.413 19.1954 53.7139 19.1954C53.7824 19.1954 53.8523 19.1853 53.9213 19.164C54.2928 19.0496 54.5012 18.6556 54.3867 18.2842C54.1487 17.5114 53.8703 16.7421 53.5594 15.9978C53.4097 15.6389 52.9969 15.4696 52.6388 15.6196C52.2802 15.7693 52.1108 16.1815 52.2606 16.5402Z" fill="#ffff" stroke="#ffff" stroke-width="0.55"/>
<path d="M35.2685 2.43214C36.0144 2.59131 36.7611 2.78876 37.4877 3.01891C37.5585 3.0413 37.6301 3.052 37.7005 3.052C37.9991 3.052 38.2763 2.86034 38.3712 2.56057C38.4886 2.19001 38.2834 1.79442 37.9129 1.67708C37.1432 1.43318 36.3523 1.22414 35.5622 1.05555C35.1825 0.97445 34.8081 1.21688 34.7271 1.59696C34.646 1.97714 34.8884 2.35104 35.2685 2.43214Z" fill="#ffff" stroke="#ffff" stroke-width="0.55"/>
<path d="M49.2686 10.9149C49.4255 10.9149 49.5833 10.8627 49.7142 10.7556C50.0149 10.5092 50.059 10.0658 49.8126 9.76515C49.3021 9.14195 48.7542 8.53466 48.1845 7.96026C47.9106 7.68435 47.4652 7.68269 47.1891 7.95624C46.9131 8.22998 46.9114 8.67566 47.1851 8.95157C47.7237 9.49445 48.2413 10.0684 48.7237 10.6572C48.8628 10.827 49.0649 10.9149 49.2686 10.9149Z" fill="#ffff" stroke="#ffff" stroke-width="0.55"/>
<path d="M51.3264 38.3308C50.9992 38.1212 50.5638 38.217 50.3543 38.5444C50.0946 38.9503 49.8188 39.3537 49.5345 39.7433C49.3567 39.987 49.3604 40.3057 49.5168 40.5438C49.2468 40.4525 48.9375 40.5298 48.7469 40.7636C48.4716 41.1007 48.1823 41.4361 47.8868 41.7602C47.625 42.0474 47.6455 42.4926 47.9328 42.7544C48.0677 42.8774 48.2375 42.9381 48.4067 42.9381C48.5978 42.9381 48.7882 42.8608 48.927 42.7085C49.2398 42.3655 49.546 42.0105 49.8373 41.6535C50.0364 41.4097 50.0417 41.0741 49.8778 40.8242C49.9511 40.849 50.0269 40.8619 50.1025 40.8619C50.3197 40.8619 50.5339 40.7618 50.6717 40.573C50.9728 40.1602 51.265 39.7329 51.54 39.3028C51.7495 38.9755 51.6538 38.5402 51.3264 38.3308Z" fill="#ffff" stroke="#ffff" stroke-width="0.55"/>
<path d="M55.4989 25.4697C55.4951 25.0833 55.1808 24.7726 54.7952 24.7726C54.793 24.7726 54.7906 24.7726 54.7884 24.7726C54.3996 24.7763 54.0876 25.0944 54.0912 25.4831L54.0922 25.6936C54.0922 26.387 54.0619 27.0879 54.0022 27.7772C53.9686 28.1645 54.2553 28.5056 54.6426 28.5392C54.6632 28.5409 54.6838 28.5418 54.7041 28.5418C55.0654 28.5418 55.3728 28.2654 55.4045 27.8988C55.4677 27.1693 55.4998 26.4273 55.4998 25.6936C55.4998 25.6189 55.4995 25.5443 55.4989 25.4697Z" fill="#ffff" stroke="#ffff" stroke-width="0.55"/>
<path d="M53.3492 34.0643C52.9872 33.922 52.5788 34.1 52.4366 34.4618C52.1576 35.1717 51.8405 35.8756 51.4945 36.554C51.3179 36.9002 51.4553 37.3241 51.8016 37.5007C51.904 37.5529 52.0132 37.5778 52.1208 37.5778C52.377 37.5778 52.624 37.4375 52.7484 37.1936C53.1151 36.4748 53.4509 35.729 53.7466 34.9769C53.8888 34.6151 53.7109 34.2065 53.3492 34.0643Z" fill="#ffff" stroke="#ffff" stroke-width="0.55"/>
<path d="M44.4526 4.85475C44.1316 4.63589 43.6936 4.71896 43.4747 5.04023C43.2559 5.3615 43.339 5.79932 43.6602 6.01808C44.2892 6.44647 44.9056 6.91139 45.4925 7.39997C45.6241 7.50945 45.7836 7.56287 45.9424 7.56287C46.1442 7.56287 46.3445 7.47656 46.4837 7.30935C46.7324 7.01066 46.6919 6.56685 46.3931 6.31814C45.7717 5.80079 45.1188 5.30848 44.4526 4.85475Z" fill="#ffff" stroke="#ffff" stroke-width="0.55"/>
<path d="M54.5148 29.4876C54.1324 29.418 53.7657 29.6703 53.6953 30.0525C53.5572 30.803 53.3812 31.555 53.1722 32.2875C53.0656 32.6613 53.2821 33.0509 53.6559 33.1575C53.7205 33.1758 53.7854 33.1847 53.8494 33.1847C54.1558 33.1847 54.4376 32.983 54.5258 32.6738C54.7471 31.898 54.9335 31.1018 55.0797 30.3072C55.15 29.9249 54.8971 29.5579 54.5148 29.4876Z" fill="#ffff" stroke="#ffff" stroke-width="0.55"/>
<path d="M21.4673 3.53549C21.5513 3.53549 21.6365 3.52037 21.7195 3.48856C22.4313 3.2152 23.1648 2.97356 23.8997 2.77041C24.2743 2.66683 24.494 2.27908 24.3905 1.9044C24.2868 1.52991 23.8991 1.31085 23.5244 1.41366C22.746 1.62898 21.9689 1.88496 21.215 2.17441C20.8521 2.31374 20.6708 2.72093 20.8101 3.08373C20.9177 3.36366 21.1844 3.53549 21.4673 3.53549Z" fill="#ffff" stroke="#ffff" stroke-width="0.55"/>
<path d="M17.2447 5.64762C17.3726 5.64762 17.502 5.61276 17.6184 5.53971C18.2643 5.1339 18.9373 4.75529 19.6188 4.41448C19.9665 4.24059 20.1074 3.81779 19.9335 3.47021C19.7596 3.12253 19.3367 2.98143 18.9893 3.15552C18.2671 3.51665 17.5539 3.91785 16.8696 4.34771C16.5404 4.5545 16.4412 4.98898 16.648 5.3181C16.7817 5.53097 17.0106 5.64762 17.2447 5.64762Z" fill="#ffff" stroke="#ffff" stroke-width="0.55"/>
<path d="M24.0812 16.8956C23.1485 17.3425 22.4162 17.9614 21.8853 18.7516L24.1785 20.2285C24.5022 19.7752 24.904 19.4351 25.3834 19.2083C25.8625 18.9817 26.4005 18.8682 26.9966 18.8682C27.7088 18.8682 28.2501 19.0139 28.6192 19.3054C28.9885 19.5969 29.1731 20.0148 29.1731 20.5589C29.1731 20.9349 29.0758 21.3138 28.8815 21.6958C28.6873 22.0781 28.3114 22.5348 27.7545 23.0659L22.507 28.0217V30.0623H32.788V27.497H26.9382L30.067 24.543C30.9611 23.714 31.5634 22.9755 31.8744 22.3275C32.1854 21.6798 32.3408 20.9865 32.3408 20.248C32.3408 19.4317 32.13 18.7224 31.7093 18.1199C31.288 17.5174 30.6987 17.0511 29.9408 16.7207C29.1828 16.3903 28.2984 16.2251 27.2878 16.2251C26.083 16.2251 25.014 16.4486 24.0812 16.8956Z" fill="#ffff" stroke="#ffff" stroke-width="0.55"/>
<path d="M40.1534 16.4581L33.7402 25.087V27.2053H41.0667V30.0622H44.1374V27.2053H46.3529V24.64H44.1374V22.0941H41.164V24.64H37.5105L43.4573 16.4581H40.1534Z" fill="#ffff" stroke="#ffff" stroke-width="0.55"/>
</svg>
