<svg width="25" height="25" viewBox="0 0 25 25" fill="none" xmlns="http://www.w3.org/2000/svg">
<path d="M18.4998 0.5H6.5001C3.20047 0.5 0.500244 3.20023 0.500244 6.49985V18.5001C0.500244 21.7989 3.20047 24.5 6.5001 24.5H18.4998C21.7994 24.5 24.4997 21.7989 24.4997 18.5001V6.49985C24.4997 3.20023 21.7994 0.5 18.4998 0.5ZM22.4996 18.5001C22.4996 20.7051 20.706 22.5 18.4998 22.5H6.5001C4.29486 22.5 2.50029 20.7051 2.50029 18.5001V6.49985C2.50029 4.29432 4.29486 2.50005 6.5001 2.50005H18.4998C20.706 2.50005 22.4996 4.29432 22.4996 6.49985V18.5001Z" fill="white"/>
<path d="M19.0007 7.49974C19.8291 7.49974 20.5007 6.82819 20.5007 5.99978C20.5007 5.17137 19.8291 4.49982 19.0007 4.49982C18.1723 4.49982 17.5007 5.17137 17.5007 5.99978C17.5007 6.82819 18.1723 7.49974 19.0007 7.49974Z" fill="white"/>
<path d="M12.4999 6.49982C9.18552 6.49982 6.5 9.18563 6.5 12.4997C6.5 15.8125 9.18552 18.5001 12.4999 18.5001C15.8132 18.5001 18.4997 15.8125 18.4997 12.4997C18.4997 9.18563 15.8132 6.49982 12.4999 6.49982ZM12.4999 16.5001C10.291 16.5001 8.50005 14.7091 8.50005 12.4997C8.50005 10.2902 10.291 8.49987 12.4999 8.49987C14.7087 8.49987 16.4997 10.2902 16.4997 12.4997C16.4997 14.7091 14.7087 16.5001 12.4999 16.5001Z" fill="white"/>
</svg>
