<svg width="25" height="25" viewBox="0 0 25 25" fill="none" xmlns="http://www.w3.org/2000/svg">
<path d="M24.4998 5.0585C23.6073 5.45 22.6563 5.7095 21.6648 5.8355C22.6848 5.2265 23.4633 4.2695 23.8293 3.116C22.8783 3.683 21.8283 4.0835 20.7093 4.307C19.8063 3.3455 18.5193 2.75 17.1153 2.75C14.3913 2.75 12.1983 4.961 12.1983 7.6715C12.1983 8.0615 12.2313 8.4365 12.3123 8.7935C8.22176 8.594 4.60226 6.6335 2.17076 3.647C1.74626 4.3835 1.49726 5.2265 1.49726 6.134C1.49726 7.838 2.37476 9.3485 3.68276 10.223C2.89226 10.208 2.11676 9.9785 1.45976 9.617V9.671C1.45976 12.062 3.16526 14.048 5.40176 14.5055C5.00126 14.615 4.56476 14.6675 4.11176 14.6675C3.79676 14.6675 3.47876 14.6495 3.18026 14.5835C3.81776 16.532 5.62676 17.9645 7.77776 18.011C6.10376 19.3205 3.97826 20.1095 1.67726 20.1095C1.27376 20.1095 0.886756 20.0915 0.499756 20.042C2.67926 21.4475 5.26226 22.25 8.04776 22.25C17.1018 22.25 22.0518 14.75 22.0518 8.249C22.0518 8.0315 22.0443 7.8215 22.0338 7.613C23.0103 6.92 23.8308 6.0545 24.4998 5.0585Z" fill="white"/>
</svg>
