<svg width="25" height="25" viewBox="0 0 25 25" fill="none" xmlns="http://www.w3.org/2000/svg">
<path d="M24.4998 24.5V15.71C24.4998 11.39 23.5698 8.09 18.5298 8.09C16.0998 8.09 14.4798 9.41 13.8198 10.67H13.7598V8.48H8.98976V24.5H13.9698V16.55C13.9698 14.45 14.3598 12.44 16.9398 12.44C19.4898 12.44 19.5198 14.81 19.5198 16.67V24.47H24.4998V24.5ZM0.889756 8.48H5.86976V24.5H0.889756V8.48ZM3.37976 0.5C1.78976 0.5 0.499756 1.79 0.499756 3.38C0.499756 4.97 1.78976 6.29 3.37976 6.29C4.96976 6.29 6.25976 4.97 6.25976 3.38C6.25976 1.79 4.96976 0.5 3.37976 0.5Z" fill="white"/>
</svg>
